<?xml version="1.0" standalone="no"?>
<!DOCTYPE svg PUBLIC "-//W3C//DTD SVG 20010904//EN"
 "http://www.w3.org/TR/2001/REC-SVG-20010904/DTD/svg10.dtd">
<svg version="1.0" xmlns="http://www.w3.org/2000/svg"
 width="112.000000pt" height="112.000000pt" viewBox="0 0 112.000000 112.000000"
 preserveAspectRatio="xMidYMid meet">
<metadata>
Created by potrace 1.11, written by Peter Selinger 2001-2013
</metadata>
<g transform="translate(0.000000,112.000000) scale(0.100000,-0.100000)"
fill="#000000" stroke="none">
<path d="M0 560 l0 -560 560 0 560 0 0 560 0 560 -560 0 -560 0 0 -560z m480
522 c0 -4 -6 -16 -13 -27 -8 -11 -30 -50 -50 -87 l-37 -66 60 -19 59 -18 -17
-23 c-17 -22 -19 -22 -67 -7 -28 8 -53 15 -57 15 -4 0 -35 -49 -69 -110 l-61
-110 -59 0 c-49 0 -60 4 -74 23 -15 22 -15 22 32 25 l48 3 54 95 c29 53 51 97
49 99 -1 1 -42 15 -91 29 -80 24 -86 28 -77 46 16 29 20 30 100 4 41 -13 82
-24 90 -24 9 0 30 28 49 63 46 85 58 97 98 97 18 0 33 -3 33 -8z m360 -37 l0
-25 -100 0 -100 0 0 25 0 25 100 0 100 0 0 -25z m189 14 c17 -6 31 -13 31 -16
0 -3 -55 -97 -122 -209 l-123 -204 -69 0 c-54 0 -72 4 -82 18 -22 28 -17 32
44 32 l57 0 115 195 c63 107 115 195 116 195 0 0 15 -5 33 -11z m-189 -104 l0
-25 -100 0 -100 0 0 25 0 25 100 0 100 0 0 -25z m-370 -510 l0 -25 -185 0
-185 0 0 25 0 25 185 0 185 0 0 -25z m580 -195 l0 -210 -205 0 -205 0 0 210 0
210 205 0 205 0 0 -210z m-560 85 c0 -24 -3 -25 -54 -25 l-54 0 -77 -140 -78
-140 -62 0 c-56 0 -65 3 -79 25 l-16 25 52 0 53 0 62 113 62 112 -109 3 c-109
3 -110 3 -110 27 l0 25 205 0 205 0 0 -25z"/>
<path d="M720 250 l0 -160 125 0 125 0 0 160 0 160 -125 0 -125 0 0 -160z"/>
</g>
</svg>
